<svg width="1190" height="95" viewBox="0 0 1190 95" fill="none" xmlns="http://www.w3.org/2000/svg">
<g clip-path="url(#clip0_6021_160)">
<path d="M1452 94.989C1452 94.9951 1452 95 1451.99 95V95C1451.98 95 1451.98 94.9953 1451.98 94.9894C1451.45 81.6509 1440.47 71 1427 71H1168.52C1163.45 71 1159.3 67.1673 1157.81 62.3261C1151.54 41.8724 1132.51 27 1110 27H83C60.492 27 41.4585 41.8724 35.1889 62.3261C33.705 67.1673 29.5456 71 24.4821 71H-443C-456.469 71 -467.448 81.6509 -467.978 94.9894C-467.978 94.9953 -467.983 95 -467.989 95V95C-467.995 95 -468 94.9951 -468 94.989V10C-468 4.47715 -463.523 0 -458 0H1442C1447.52 0 1452 4.47715 1452 10V94.989Z" fill="#7027E2"/>
</g>
<defs>
<clipPath id="clip0_6021_160">
<rect width="1190" height="95" fill="white"/>
</clipPath>
</defs>
</svg>
